<mxfile host="app.diagrams.net" modified="2021-04-26T09:58:10.885Z" agent="5.0 (Windows NT 10.0; Win64; x64) AppleWebKit/537.36 (KHTML, like Gecko) Chrome/89.0.4389.128 Safari/537.36" etag="jTjZJR--q_3nrBfzsfpI" version="14.6.6" type="github">
  <diagram id="kgpKYQtTHZ0yAKxKKP6v" name="Page-1">
    <mxGraphModel dx="2153" dy="845" grid="1" gridSize="10" guides="1" tooltips="1" connect="1" arrows="1" fold="1" page="1" pageScale="1" pageWidth="850" pageHeight="1100" math="0" shadow="0">
      <root>
        <mxCell id="0" />
        <mxCell id="1" parent="0" />
        <mxCell id="1pcKVCtWAvLQPfXGA9ep-1" value="Inicializalas" style="shape=umlFrame;whiteSpace=wrap;html=1;width=80;height=30;" parent="1" vertex="1">
          <mxGeometry x="10" y="50" width="1590" height="1640" as="geometry" />
        </mxCell>
        <mxCell id="3nuBFxr9cyL0pnOWT2aG-1" value="Main" style="shape=umlLifeline;perimeter=lifelinePerimeter;container=1;collapsible=0;recursiveResize=0;rounded=0;shadow=0;strokeWidth=1;" parent="1" vertex="1">
          <mxGeometry x="80" y="90" width="100" height="1080" as="geometry" />
        </mxCell>
        <mxCell id="3nuBFxr9cyL0pnOWT2aG-2" value="" style="points=[];perimeter=orthogonalPerimeter;rounded=0;shadow=0;strokeWidth=1;" parent="3nuBFxr9cyL0pnOWT2aG-1" vertex="1">
          <mxGeometry x="45" y="70" width="10" height="970" as="geometry" />
        </mxCell>
        <mxCell id="3nuBFxr9cyL0pnOWT2aG-5" value="form: MainGUI" style="shape=umlLifeline;perimeter=lifelinePerimeter;container=1;collapsible=0;recursiveResize=0;rounded=0;shadow=0;strokeWidth=1;" parent="1" vertex="1">
          <mxGeometry x="230" y="90" width="100" height="1080" as="geometry" />
        </mxCell>
        <mxCell id="CCc0ATvvC3ZymBzDG2gh-12" value="" style="points=[];perimeter=orthogonalPerimeter;rounded=0;shadow=0;strokeWidth=1;" parent="3nuBFxr9cyL0pnOWT2aG-5" vertex="1">
          <mxGeometry x="55" y="270" width="10" height="500" as="geometry" />
        </mxCell>
        <mxCell id="CCc0ATvvC3ZymBzDG2gh-8" value="" style="points=[];perimeter=orthogonalPerimeter;rounded=0;shadow=0;strokeWidth=1;" parent="3nuBFxr9cyL0pnOWT2aG-5" vertex="1">
          <mxGeometry x="55" y="200" width="10" height="30" as="geometry" />
        </mxCell>
        <mxCell id="CCc0ATvvC3ZymBzDG2gh-6" value="" style="points=[];perimeter=orthogonalPerimeter;rounded=0;shadow=0;strokeWidth=1;" parent="3nuBFxr9cyL0pnOWT2aG-5" vertex="1">
          <mxGeometry x="55" y="140" width="10" height="30" as="geometry" />
        </mxCell>
        <mxCell id="3nuBFxr9cyL0pnOWT2aG-6" value="" style="points=[];perimeter=orthogonalPerimeter;rounded=0;shadow=0;strokeWidth=1;" parent="3nuBFxr9cyL0pnOWT2aG-5" vertex="1">
          <mxGeometry x="45" y="80" width="10" height="930" as="geometry" />
        </mxCell>
        <mxCell id="CCc0ATvvC3ZymBzDG2gh-4" value="createMenu()&lt;span style=&quot;color: rgba(0 , 0 , 0 , 0) ; font-family: monospace ; font-size: 0px ; background-color: rgb(248 , 249 , 250)&quot;&gt;%3CmxGraphModel%3E%3Croot%3E%3CmxCell%20id%3D%220%22%2F%3E%3CmxCell%20id%3D%221%22%20parent%3D%220%22%2F%3E%3CmxCell%20id%3D%222%22%20value%3D%22form%3A%20MainGUI%22%20style%3D%22shape%3DumlLifeline%3Bperimeter%3DlifelinePerimeter%3Bcontainer%3D1%3Bcollapsible%3D0%3BrecursiveResize%3D0%3Brounded%3D0%3Bshadow%3D0%3BstrokeWidth%3D1%3B%22%20vertex%3D%221%22%20parent%3D%221%22%3E%3CmxGeometry%20x%3D%22300%22%20y%3D%2280%22%20width%3D%22100%22%20height%3D%22300%22%20as%3D%22geometry%22%2F%3E%3C%2FmxCell%3E%3CmxCell%20id%3D%223%22%20value%3D%22%22%20style%3D%22points%3D%5B%5D%3Bperimeter%3DorthogonalPerimeter%3Brounded%3D0%3Bshadow%3D0%3BstrokeWidth%3D1%3B%22%20vertex%3D%221%22%20parent%3D%222%22%3E%3CmxGeometry%20x%3D%2245%22%20y%3D%2280%22%20width%3D%2210%22%20height%3D%22160%22%20as%3D%22geometry%22%2F%3E%3C%2FmxCell%3E%3C%2Froot%3E%3C%2FmxGraphModel%3E&lt;/span&gt;" style="endArrow=classic;html=1;rounded=0;" parent="3nuBFxr9cyL0pnOWT2aG-5" target="CCc0ATvvC3ZymBzDG2gh-6" edge="1">
          <mxGeometry width="50" height="50" relative="1" as="geometry">
            <mxPoint x="50" y="111" as="sourcePoint" />
            <mxPoint x="60" y="150" as="targetPoint" />
            <Array as="points">
              <mxPoint x="100" y="111" />
              <mxPoint x="100" y="140" />
            </Array>
          </mxGeometry>
        </mxCell>
        <mxCell id="CCc0ATvvC3ZymBzDG2gh-5" value="setMenuListeners()" style="endArrow=classic;html=1;rounded=0;startArrow=none;" parent="3nuBFxr9cyL0pnOWT2aG-5" source="3nuBFxr9cyL0pnOWT2aG-6" target="CCc0ATvvC3ZymBzDG2gh-8" edge="1">
          <mxGeometry x="-0.0226" y="14" width="50" height="50" relative="1" as="geometry">
            <mxPoint x="70" y="156" as="sourcePoint" />
            <mxPoint x="71" y="199" as="targetPoint" />
            <Array as="points">
              <mxPoint x="100" y="180" />
              <mxPoint x="100" y="200" />
            </Array>
            <mxPoint x="-4" y="-10" as="offset" />
          </mxGeometry>
        </mxCell>
        <mxCell id="CCc0ATvvC3ZymBzDG2gh-13" value="createTelepesToolbar()" style="endArrow=classic;html=1;rounded=0;startArrow=none;" parent="3nuBFxr9cyL0pnOWT2aG-5" source="3nuBFxr9cyL0pnOWT2aG-6" target="CCc0ATvvC3ZymBzDG2gh-12" edge="1">
          <mxGeometry y="40" width="50" height="50" relative="1" as="geometry">
            <mxPoint x="83" y="230" as="sourcePoint" />
            <mxPoint x="81" y="276" as="targetPoint" />
            <Array as="points">
              <mxPoint x="100" y="240" />
              <mxPoint x="100" y="270" />
            </Array>
            <mxPoint as="offset" />
          </mxGeometry>
        </mxCell>
        <mxCell id="3nuBFxr9cyL0pnOWT2aG-8" value="MainGUI()" style="verticalAlign=bottom;endArrow=block;entryX=0;entryY=0;shadow=0;strokeWidth=1;" parent="1" source="3nuBFxr9cyL0pnOWT2aG-2" target="3nuBFxr9cyL0pnOWT2aG-6" edge="1">
          <mxGeometry relative="1" as="geometry">
            <mxPoint x="275" y="160" as="sourcePoint" />
          </mxGeometry>
        </mxCell>
        <mxCell id="CCc0ATvvC3ZymBzDG2gh-1" value="bTetlen:JButton" style="shape=umlLifeline;perimeter=lifelinePerimeter;container=1;collapsible=0;recursiveResize=0;rounded=0;shadow=0;strokeWidth=1;" parent="1" vertex="1">
          <mxGeometry x="450" y="90" width="100" height="1090" as="geometry" />
        </mxCell>
        <mxCell id="CCc0ATvvC3ZymBzDG2gh-2" value="" style="points=[];perimeter=orthogonalPerimeter;rounded=0;shadow=0;strokeWidth=1;" parent="CCc0ATvvC3ZymBzDG2gh-1" vertex="1">
          <mxGeometry x="45" y="300" width="10" height="80" as="geometry" />
        </mxCell>
        <mxCell id="J3oIdBuoGA6uhWaEnUac-22" value="AddItemListener()" style="endArrow=classic;html=1;entryX=0.479;entryY=0.664;entryDx=0;entryDy=0;entryPerimeter=0;" edge="1" parent="CCc0ATvvC3ZymBzDG2gh-1" target="J3oIdBuoGA6uhWaEnUac-15">
          <mxGeometry x="0.0547" y="12" width="50" height="50" relative="1" as="geometry">
            <mxPoint x="-160" y="724" as="sourcePoint" />
            <mxPoint x="635.88" y="716.75" as="targetPoint" />
            <Array as="points" />
            <mxPoint as="offset" />
          </mxGeometry>
        </mxCell>
        <mxCell id="J3oIdBuoGA6uhWaEnUac-27" value="" style="endArrow=classic;html=1;dashed=1;exitX=0.51;exitY=0.611;exitDx=0;exitDy=0;exitPerimeter=0;" edge="1" parent="CCc0ATvvC3ZymBzDG2gh-1" source="J3oIdBuoGA6uhWaEnUac-13">
          <mxGeometry width="50" height="50" relative="1" as="geometry">
            <mxPoint x="293.7000000000003" y="669.9999999999999" as="sourcePoint" />
            <mxPoint x="-160" y="670.0400000000001" as="targetPoint" />
            <Array as="points">
              <mxPoint x="-125" y="670.04" />
            </Array>
          </mxGeometry>
        </mxCell>
        <mxCell id="CCc0ATvvC3ZymBzDG2gh-14" value="AddActionListener()" style="endArrow=classic;html=1;exitX=1.756;exitY=0.057;exitDx=0;exitDy=0;exitPerimeter=0;" parent="1" edge="1">
          <mxGeometry x="0.0547" y="12" width="50" height="50" relative="1" as="geometry">
            <mxPoint x="295.55999999999995" y="392.49" as="sourcePoint" />
            <mxPoint x="498" y="392" as="targetPoint" />
            <Array as="points" />
            <mxPoint as="offset" />
          </mxGeometry>
        </mxCell>
        <mxCell id="CCc0ATvvC3ZymBzDG2gh-19" value="" style="endArrow=classic;html=1;dashed=1;" parent="1" source="CCc0ATvvC3ZymBzDG2gh-2" target="CCc0ATvvC3ZymBzDG2gh-12" edge="1">
          <mxGeometry width="50" height="50" relative="1" as="geometry">
            <mxPoint x="500" y="480" as="sourcePoint" />
            <mxPoint x="380" y="480" as="targetPoint" />
            <Array as="points">
              <mxPoint x="330" y="455" />
            </Array>
          </mxGeometry>
        </mxCell>
        <mxCell id="CCc0ATvvC3ZymBzDG2gh-20" value="" style="endArrow=classic;html=1;dashed=1;exitX=0.537;exitY=0.937;exitDx=0;exitDy=0;exitPerimeter=0;" parent="1" source="3nuBFxr9cyL0pnOWT2aG-5" target="3nuBFxr9cyL0pnOWT2aG-2" edge="1">
          <mxGeometry width="50" height="50" relative="1" as="geometry">
            <mxPoint x="275" y="581.9" as="sourcePoint" />
            <mxPoint x="90" y="579.9999999999999" as="targetPoint" />
          </mxGeometry>
        </mxCell>
        <mxCell id="3nuBFxr9cyL0pnOWT2aG-3" value="main(args)" style="verticalAlign=bottom;startArrow=oval;endArrow=block;startSize=8;shadow=0;strokeWidth=1;exitX=-0.001;exitY=0.203;exitDx=0;exitDy=0;exitPerimeter=0;" parent="1" source="1pcKVCtWAvLQPfXGA9ep-1" target="3nuBFxr9cyL0pnOWT2aG-2" edge="1">
          <mxGeometry relative="1" as="geometry">
            <mxPoint x="65" y="150" as="sourcePoint" />
          </mxGeometry>
        </mxCell>
        <mxCell id="J3oIdBuoGA6uhWaEnUac-2" value="" style="endArrow=classic;html=1;exitX=0.459;exitY=0.96;exitDx=0;exitDy=0;exitPerimeter=0;entryX=0.001;entryY=0.657;entryDx=0;entryDy=0;entryPerimeter=0;dashed=1;" edge="1" parent="1" source="3nuBFxr9cyL0pnOWT2aG-1" target="1pcKVCtWAvLQPfXGA9ep-1">
          <mxGeometry width="50" height="50" relative="1" as="geometry">
            <mxPoint x="520" y="810" as="sourcePoint" />
            <mxPoint x="570" y="760" as="targetPoint" />
          </mxGeometry>
        </mxCell>
        <mxCell id="J3oIdBuoGA6uhWaEnUac-3" value="drawArea: Grafika" style="shape=umlLifeline;perimeter=lifelinePerimeter;container=1;collapsible=0;recursiveResize=0;rounded=0;shadow=0;strokeWidth=1;" vertex="1" parent="1">
          <mxGeometry x="1410" y="90" width="100" height="1180" as="geometry" />
        </mxCell>
        <mxCell id="J3oIdBuoGA6uhWaEnUac-4" value="" style="points=[];perimeter=orthogonalPerimeter;rounded=0;shadow=0;strokeWidth=1;" vertex="1" parent="J3oIdBuoGA6uhWaEnUac-3">
          <mxGeometry x="45" y="870" width="10" height="60" as="geometry" />
        </mxCell>
        <mxCell id="J3oIdBuoGA6uhWaEnUac-5" value="Grafika()" style="endArrow=classic;html=1;exitX=0.867;exitY=0.863;exitDx=0;exitDy=0;exitPerimeter=0;" edge="1" parent="1">
          <mxGeometry x="0.002" y="14" width="50" height="50" relative="1" as="geometry">
            <mxPoint x="283.6700000000001" y="964.5900000000001" as="sourcePoint" />
            <mxPoint x="1464" y="960" as="targetPoint" />
            <mxPoint as="offset" />
          </mxGeometry>
        </mxCell>
        <mxCell id="J3oIdBuoGA6uhWaEnUac-6" value="" style="endArrow=classic;dashed=1;html=1;dashPattern=1 3;strokeWidth=2;exitX=0.548;exitY=0.788;exitDx=0;exitDy=0;exitPerimeter=0;startArrow=none;startFill=0;endFill=1;" edge="1" parent="1" source="J3oIdBuoGA6uhWaEnUac-3">
          <mxGeometry width="50" height="50" relative="1" as="geometry">
            <mxPoint x="1063.7000000000003" y="1015.76" as="sourcePoint" />
            <mxPoint x="278.8333333333335" y="1015.76" as="targetPoint" />
          </mxGeometry>
        </mxCell>
        <mxCell id="J3oIdBuoGA6uhWaEnUac-7" value="bFur: JButton" style="shape=umlLifeline;perimeter=lifelinePerimeter;container=1;collapsible=0;recursiveResize=0;rounded=0;shadow=0;strokeWidth=1;" vertex="1" parent="1">
          <mxGeometry x="570" y="90" width="100" height="1090" as="geometry" />
        </mxCell>
        <mxCell id="J3oIdBuoGA6uhWaEnUac-8" value="" style="points=[];perimeter=orthogonalPerimeter;rounded=0;shadow=0;strokeWidth=1;" vertex="1" parent="J3oIdBuoGA6uhWaEnUac-7">
          <mxGeometry x="45" y="390" width="10" height="40" as="geometry" />
        </mxCell>
        <mxCell id="J3oIdBuoGA6uhWaEnUac-28" value="" style="endArrow=classic;html=1;dashed=1;exitX=0.526;exitY=0.7;exitDx=0;exitDy=0;exitPerimeter=0;" edge="1" parent="J3oIdBuoGA6uhWaEnUac-7" source="J3oIdBuoGA6uhWaEnUac-15">
          <mxGeometry width="50" height="50" relative="1" as="geometry">
            <mxPoint x="515" y="760.0000000000002" as="sourcePoint" />
            <mxPoint x="-276.4" y="764.05" as="targetPoint" />
            <Array as="points">
              <mxPoint x="-241.39999999999998" y="764.05" />
            </Array>
          </mxGeometry>
        </mxCell>
        <mxCell id="J3oIdBuoGA6uhWaEnUac-9" value="bBanyasz:JButton" style="shape=umlLifeline;perimeter=lifelinePerimeter;container=1;collapsible=0;recursiveResize=0;rounded=0;shadow=0;strokeWidth=1;" vertex="1" parent="1">
          <mxGeometry x="690" y="90" width="100" height="1090" as="geometry" />
        </mxCell>
        <mxCell id="J3oIdBuoGA6uhWaEnUac-10" value="" style="points=[];perimeter=orthogonalPerimeter;rounded=0;shadow=0;strokeWidth=1;" vertex="1" parent="J3oIdBuoGA6uhWaEnUac-9">
          <mxGeometry x="45" y="450" width="10" height="40" as="geometry" />
        </mxCell>
        <mxCell id="J3oIdBuoGA6uhWaEnUac-11" value="cboxMozog: JComboBox" style="shape=umlLifeline;perimeter=lifelinePerimeter;container=1;collapsible=0;recursiveResize=0;rounded=0;shadow=0;strokeWidth=1;" vertex="1" parent="1">
          <mxGeometry x="820" y="90" width="140" height="1090" as="geometry" />
        </mxCell>
        <mxCell id="J3oIdBuoGA6uhWaEnUac-12" value="" style="points=[];perimeter=orthogonalPerimeter;rounded=0;shadow=0;strokeWidth=1;" vertex="1" parent="J3oIdBuoGA6uhWaEnUac-11">
          <mxGeometry x="65" y="520" width="10" height="40" as="geometry" />
        </mxCell>
        <mxCell id="J3oIdBuoGA6uhWaEnUac-13" value="cboxLerak: JComboBox" style="shape=umlLifeline;perimeter=lifelinePerimeter;container=1;collapsible=0;recursiveResize=0;rounded=0;shadow=0;strokeWidth=1;" vertex="1" parent="1">
          <mxGeometry x="1010" y="90" width="140" height="1090" as="geometry" />
        </mxCell>
        <mxCell id="J3oIdBuoGA6uhWaEnUac-14" value="" style="points=[];perimeter=orthogonalPerimeter;rounded=0;shadow=0;strokeWidth=1;" vertex="1" parent="J3oIdBuoGA6uhWaEnUac-13">
          <mxGeometry x="65" y="620" width="10" height="40" as="geometry" />
        </mxCell>
        <mxCell id="J3oIdBuoGA6uhWaEnUac-15" value="cboxEpit: JComboBox" style="shape=umlLifeline;perimeter=lifelinePerimeter;container=1;collapsible=0;recursiveResize=0;rounded=0;shadow=0;strokeWidth=1;" vertex="1" parent="1">
          <mxGeometry x="1210" y="90" width="140" height="1090" as="geometry" />
        </mxCell>
        <mxCell id="J3oIdBuoGA6uhWaEnUac-16" value="" style="points=[];perimeter=orthogonalPerimeter;rounded=0;shadow=0;strokeWidth=1;" vertex="1" parent="J3oIdBuoGA6uhWaEnUac-15">
          <mxGeometry x="65" y="720" width="10" height="40" as="geometry" />
        </mxCell>
        <mxCell id="J3oIdBuoGA6uhWaEnUac-17" value="AddActionListener()" style="endArrow=classic;html=1;entryX=0.514;entryY=0.364;entryDx=0;entryDy=0;entryPerimeter=0;" edge="1" parent="1" target="J3oIdBuoGA6uhWaEnUac-7">
          <mxGeometry x="0.0547" y="12" width="50" height="50" relative="1" as="geometry">
            <mxPoint x="294" y="487" as="sourcePoint" />
            <mxPoint x="508" y="402" as="targetPoint" />
            <Array as="points" />
            <mxPoint as="offset" />
          </mxGeometry>
        </mxCell>
        <mxCell id="J3oIdBuoGA6uhWaEnUac-18" value="AddActionListener()" style="endArrow=classic;html=1;entryX=0.644;entryY=0.167;entryDx=0;entryDy=0;entryPerimeter=0;" edge="1" parent="1" target="J3oIdBuoGA6uhWaEnUac-10">
          <mxGeometry x="0.0547" y="12" width="50" height="50" relative="1" as="geometry">
            <mxPoint x="293" y="547" as="sourcePoint" />
            <mxPoint x="518" y="412" as="targetPoint" />
            <Array as="points" />
            <mxPoint as="offset" />
          </mxGeometry>
        </mxCell>
        <mxCell id="J3oIdBuoGA6uhWaEnUac-19" value="AddItemListener()" style="endArrow=classic;html=1;entryX=0.502;entryY=0.482;entryDx=0;entryDy=0;entryPerimeter=0;" edge="1" parent="1" target="J3oIdBuoGA6uhWaEnUac-11">
          <mxGeometry x="0.0547" y="12" width="50" height="50" relative="1" as="geometry">
            <mxPoint x="291" y="615" as="sourcePoint" />
            <mxPoint x="528" y="422" as="targetPoint" />
            <Array as="points" />
            <mxPoint as="offset" />
          </mxGeometry>
        </mxCell>
        <mxCell id="J3oIdBuoGA6uhWaEnUac-20" value="AddItemListener()" style="endArrow=classic;html=1;entryX=0.542;entryY=0.575;entryDx=0;entryDy=0;entryPerimeter=0;exitX=1.2;exitY=0.707;exitDx=0;exitDy=0;exitPerimeter=0;" edge="1" parent="1" source="CCc0ATvvC3ZymBzDG2gh-12" target="J3oIdBuoGA6uhWaEnUac-13">
          <mxGeometry x="0.0547" y="12" width="50" height="50" relative="1" as="geometry">
            <mxPoint x="290" y="710" as="sourcePoint" />
            <mxPoint x="889.2799999999997" y="710.3800000000001" as="targetPoint" />
            <Array as="points" />
            <mxPoint as="offset" />
          </mxGeometry>
        </mxCell>
        <mxCell id="J3oIdBuoGA6uhWaEnUac-23" value="" style="endArrow=classic;html=1;dashed=1;exitX=0.537;exitY=0.393;exitDx=0;exitDy=0;exitPerimeter=0;" edge="1" parent="1" source="J3oIdBuoGA6uhWaEnUac-7">
          <mxGeometry width="50" height="50" relative="1" as="geometry">
            <mxPoint x="490" y="520" as="sourcePoint" />
            <mxPoint x="290" y="520" as="targetPoint" />
            <Array as="points">
              <mxPoint x="325" y="520" />
            </Array>
          </mxGeometry>
        </mxCell>
        <mxCell id="J3oIdBuoGA6uhWaEnUac-24" value="" style="endArrow=classic;html=1;dashed=1;exitX=0.537;exitY=0.451;exitDx=0;exitDy=0;exitPerimeter=0;" edge="1" parent="1" source="J3oIdBuoGA6uhWaEnUac-9">
          <mxGeometry width="50" height="50" relative="1" as="geometry">
            <mxPoint x="623.7000000000003" y="579.9999999999999" as="sourcePoint" />
            <mxPoint x="290" y="581.63" as="targetPoint" />
            <Array as="points">
              <mxPoint x="325" y="581.63" />
            </Array>
          </mxGeometry>
        </mxCell>
        <mxCell id="J3oIdBuoGA6uhWaEnUac-26" value="" style="endArrow=classic;html=1;dashed=1;exitX=0.518;exitY=0.514;exitDx=0;exitDy=0;exitPerimeter=0;" edge="1" parent="1" source="J3oIdBuoGA6uhWaEnUac-11">
          <mxGeometry width="50" height="50" relative="1" as="geometry">
            <mxPoint x="743.7000000000003" y="649.9999999999999" as="sourcePoint" />
            <mxPoint x="290" y="650.0400000000001" as="targetPoint" />
            <Array as="points">
              <mxPoint x="325" y="650.04" />
            </Array>
          </mxGeometry>
        </mxCell>
      </root>
    </mxGraphModel>
  </diagram>
</mxfile>
